<svg xmlns="http://www.w3.org/2000/svg" xmlns:xlink="http://www.w3.org/1999/xlink" width="500" zoomAndPan="magnify" viewBox="0 0 375 374.999991" height="500" preserveAspectRatio="xMidYMid meet" version="1.0"><defs><g/><clipPath id="fb07375dce"><path d="M 2 66 L 161 66 L 161 276 L 2 276 Z M 2 66 " clip-rule="nonzero"/></clipPath><clipPath id="0654dc5315"><path d="M -55.832031 128.363281 L 79.480469 37.375 L 187.230469 197.617188 L 51.917969 288.605469 Z M -55.832031 128.363281 " clip-rule="nonzero"/></clipPath><clipPath id="7ace25f76b"><path d="M -55.832031 128.363281 L 79.480469 37.375 L 187.230469 197.617188 L 51.917969 288.605469 Z M -55.832031 128.363281 " clip-rule="nonzero"/></clipPath><clipPath id="111c35e06c"><path d="M 52 151 L 89 151 L 89 190 L 52 190 Z M 52 151 " clip-rule="nonzero"/></clipPath><clipPath id="4e1ffe31c7"><path d="M -55.832031 128.363281 L 79.480469 37.375 L 187.230469 197.617188 L 51.917969 288.605469 Z M -55.832031 128.363281 " clip-rule="nonzero"/></clipPath><clipPath id="e3ac628c79"><path d="M -55.832031 128.363281 L 79.480469 37.375 L 187.230469 197.617188 L 51.917969 288.605469 Z M -55.832031 128.363281 " clip-rule="nonzero"/></clipPath><clipPath id="7b1e0ef750"><path d="M 69 195 L 76 195 L 76 202 L 69 202 Z M 69 195 " clip-rule="nonzero"/></clipPath><clipPath id="789d5793bf"><path d="M -55.832031 128.363281 L 79.480469 37.375 L 187.230469 197.617188 L 51.917969 288.605469 Z M -55.832031 128.363281 " clip-rule="nonzero"/></clipPath><clipPath id="1f861e8324"><path d="M -55.832031 128.363281 L 79.480469 37.375 L 187.230469 197.617188 L 51.917969 288.605469 Z M -55.832031 128.363281 " clip-rule="nonzero"/></clipPath><clipPath id="7e3c83069a"><path d="M 95 159 L 103 159 L 103 166 L 95 166 Z M 95 159 " clip-rule="nonzero"/></clipPath><clipPath id="e037594cab"><path d="M -55.832031 128.363281 L 79.480469 37.375 L 187.230469 197.617188 L 51.917969 288.605469 Z M -55.832031 128.363281 " clip-rule="nonzero"/></clipPath><clipPath id="4a60d9c046"><path d="M -55.832031 128.363281 L 79.480469 37.375 L 187.230469 197.617188 L 51.917969 288.605469 Z M -55.832031 128.363281 " clip-rule="nonzero"/></clipPath></defs><g clip-path="url(#fb07375dce)"><g clip-path="url(#0654dc5315)"><g clip-path="url(#7ace25f76b)"><path fill="#ffffff" d="M 55.3125 214.136719 C 52.558594 211.566406 52.15625 207.328125 54.421875 204.332031 L 61.578125 194.695312 L 56.683594 191.066406 C 45.25 182.542969 42.84375 166.304688 51.332031 154.878906 C 59.824219 143.453125 76.046875 141.074219 87.480469 149.59375 L 92.371094 153.226562 L 99.527344 143.59375 C 101.773438 140.566406 105.933594 139.730469 109.164062 141.621094 L 160.992188 171.785156 L 117.386719 94.210938 C 114.851562 89.710938 109.351562 87.828125 104.621094 89.800781 L 89.515625 96.164062 L 86.265625 88.480469 C 78.65625 70.46875 57.882812 61.976562 39.878906 69.527344 C 21.898438 77.109375 13.453125 97.882812 21.03125 115.914062 L 24.28125 123.597656 L 9.179688 129.957031 C 4.417969 131.953125 1.929688 137.199219 3.390625 142.15625 L 40.398438 267.964844 C 42.164062 273.96875 48.777344 277.113281 54.554688 274.703125 L 99.683594 255.742188 Z M 95.414062 110.101562 C 96.378906 112.402344 95.304688 115.042969 93.011719 116.003906 C 90.714844 116.96875 88.074219 115.886719 87.109375 113.589844 C 86.140625 111.292969 87.214844 108.648438 89.511719 107.6875 C 91.773438 106.746094 94.445312 107.804688 95.414062 110.101562 Z M 29.421875 112.417969 C 23.792969 99.011719 30.058594 83.546875 43.453125 77.886719 C 56.847656 72.230469 72.300781 78.582031 77.980469 92 L 81.230469 99.679688 L 32.671875 120.097656 Z M 32.613281 131.613281 C 34.90625 130.648438 37.550781 131.730469 38.515625 134.027344 C 39.480469 136.328125 38.40625 138.96875 36.113281 139.929688 C 33.820312 140.894531 31.175781 139.8125 30.210938 137.515625 C 29.214844 135.238281 30.289062 132.59375 32.613281 131.613281 Z M 32.613281 131.613281 " fill-opacity="1" fill-rule="nonzero"/></g></g></g><g clip-path="url(#111c35e06c)"><g clip-path="url(#4e1ffe31c7)"><g clip-path="url(#e3ac628c79)"><path fill="#ffffff" d="M 83.546875 154.875 C 75.046875 148.535156 62.949219 150.285156 56.617188 158.828125 C 50.296875 167.320312 52.070312 179.433594 60.621094 185.785156 L 65.511719 189.417969 L 88.457031 158.539062 Z M 83.546875 154.875 " fill-opacity="1" fill-rule="nonzero"/></g></g></g><g clip-path="url(#7b1e0ef750)"><g clip-path="url(#789d5793bf)"><g clip-path="url(#1f861e8324)"><path fill="#ffffff" d="M 69.746094 196.707031 C 68.664062 198.148438 68.953125 200.230469 70.445312 201.324219 C 71.886719 202.410156 73.96875 202.125 75.058594 200.632812 C 76.140625 199.191406 75.851562 197.109375 74.359375 196.015625 C 72.917969 194.929688 70.835938 195.214844 69.746094 196.707031 Z M 69.746094 196.707031 " fill-opacity="1" fill-rule="nonzero"/></g></g></g><g clip-path="url(#7e3c83069a)"><g clip-path="url(#e037594cab)"><g clip-path="url(#4a60d9c046)"><path fill="#ffffff" d="M 101.921875 164.445312 C 103 163.003906 102.714844 160.917969 101.21875 159.824219 C 99.777344 158.738281 97.695312 159.023438 96.605469 160.515625 C 95.515625 162.007812 95.8125 164.039062 97.304688 165.136719 C 98.777344 166.199219 100.859375 165.914062 101.921875 164.445312 Z M 101.921875 164.445312 " fill-opacity="1" fill-rule="nonzero"/></g></g></g><g fill="#000000" fill-opacity="1"><g transform="translate(93.500367, 217.053118)"><g><path d="M 28.28125 0 L 20.328125 0 L 20.328125 -11.9375 L 11.125 -11.9375 L 11.125 0 L 3.171875 0 L 3.171875 -29.296875 L 11.125 -29.296875 L 11.125 -18.4375 L 20.328125 -18.4375 L 20.328125 -29.296875 L 28.28125 -29.296875 Z M 28.28125 0 "/></g></g></g><g fill="#000000" fill-opacity="1"><g transform="translate(124.942688, 217.053118)"><g><path d="M 20.5625 0 L 3.171875 0 L 3.171875 -29.296875 L 20.5625 -29.296875 L 20.5625 -22.953125 L 11.078125 -22.953125 L 11.078125 -18.34375 L 19.859375 -18.34375 L 19.859375 -11.984375 L 11.078125 -11.984375 L 11.078125 -6.453125 L 20.5625 -6.453125 Z M 20.5625 0 "/></g></g></g><g fill="#000000" fill-opacity="1"><g transform="translate(147.467334, 217.053118)"><g><path d="M 20.5625 0 L 3.171875 0 L 3.171875 -29.296875 L 20.5625 -29.296875 L 20.5625 -22.953125 L 11.078125 -22.953125 L 11.078125 -18.34375 L 19.859375 -18.34375 L 19.859375 -11.984375 L 11.078125 -11.984375 L 11.078125 -6.453125 L 20.5625 -6.453125 Z M 20.5625 0 "/></g></g></g><g fill="#000000" fill-opacity="1"><g transform="translate(169.991981, 217.053118)"><g><path d="M 3.171875 0 L 3.171875 -29.296875 L 11.078125 -29.296875 L 11.078125 -6.390625 L 22.375 -6.390625 L 22.375 0 Z M 3.171875 0 "/></g></g></g><g fill="#000000" fill-opacity="1"><g transform="translate(193.879328, 217.053118)"><g><path d="M 22.328125 -8.90625 C 22.328125 -7.082031 21.863281 -5.460938 20.9375 -4.046875 C 20.019531 -2.640625 18.691406 -1.546875 16.953125 -0.765625 C 15.210938 0.015625 13.175781 0.40625 10.84375 0.40625 C 8.894531 0.40625 7.257812 0.269531 5.9375 0 C 4.613281 -0.28125 3.234375 -0.757812 1.796875 -1.4375 L 1.796875 -8.5 C 3.304688 -7.71875 4.875 -7.109375 6.5 -6.671875 C 8.132812 -6.242188 9.632812 -6.03125 11 -6.03125 C 12.175781 -6.03125 13.035156 -6.234375 13.578125 -6.640625 C 14.128906 -7.046875 14.40625 -7.570312 14.40625 -8.21875 C 14.40625 -8.613281 14.296875 -8.960938 14.078125 -9.265625 C 13.859375 -9.566406 13.503906 -9.867188 13.015625 -10.171875 C 12.523438 -10.484375 11.226562 -11.113281 9.125 -12.0625 C 7.207031 -12.9375 5.769531 -13.78125 4.8125 -14.59375 C 3.863281 -15.40625 3.15625 -16.335938 2.6875 -17.390625 C 2.226562 -18.453125 2 -19.703125 2 -21.140625 C 2 -23.835938 2.976562 -25.941406 4.9375 -27.453125 C 6.90625 -28.960938 9.609375 -29.71875 13.046875 -29.71875 C 16.078125 -29.71875 19.171875 -29.019531 22.328125 -27.625 L 19.90625 -21.5 C 17.164062 -22.757812 14.800781 -23.390625 12.8125 -23.390625 C 11.78125 -23.390625 11.03125 -23.207031 10.5625 -22.84375 C 10.09375 -22.488281 9.859375 -22.039062 9.859375 -21.5 C 9.859375 -20.925781 10.15625 -20.410156 10.75 -19.953125 C 11.34375 -19.503906 12.957031 -18.679688 15.59375 -17.484375 C 18.113281 -16.335938 19.863281 -15.113281 20.84375 -13.8125 C 21.832031 -12.507812 22.328125 -10.875 22.328125 -8.90625 Z M 22.328125 -8.90625 "/></g></g></g><g fill="#000000" fill-opacity="1"><g transform="translate(217.566277, 217.053118)"><g/></g></g><g fill="#000000" fill-opacity="1"><g transform="translate(228.227409, 217.053118)"><g><path d="M 22.328125 -8.90625 C 22.328125 -7.082031 21.863281 -5.460938 20.9375 -4.046875 C 20.019531 -2.640625 18.691406 -1.546875 16.953125 -0.765625 C 15.210938 0.015625 13.175781 0.40625 10.84375 0.40625 C 8.894531 0.40625 7.257812 0.269531 5.9375 0 C 4.613281 -0.28125 3.234375 -0.757812 1.796875 -1.4375 L 1.796875 -8.5 C 3.304688 -7.71875 4.875 -7.109375 6.5 -6.671875 C 8.132812 -6.242188 9.632812 -6.03125 11 -6.03125 C 12.175781 -6.03125 13.035156 -6.234375 13.578125 -6.640625 C 14.128906 -7.046875 14.40625 -7.570312 14.40625 -8.21875 C 14.40625 -8.613281 14.296875 -8.960938 14.078125 -9.265625 C 13.859375 -9.566406 13.503906 -9.867188 13.015625 -10.171875 C 12.523438 -10.484375 11.226562 -11.113281 9.125 -12.0625 C 7.207031 -12.9375 5.769531 -13.78125 4.8125 -14.59375 C 3.863281 -15.40625 3.15625 -16.335938 2.6875 -17.390625 C 2.226562 -18.453125 2 -19.703125 2 -21.140625 C 2 -23.835938 2.976562 -25.941406 4.9375 -27.453125 C 6.90625 -28.960938 9.609375 -29.71875 13.046875 -29.71875 C 16.078125 -29.71875 19.171875 -29.019531 22.328125 -27.625 L 19.90625 -21.5 C 17.164062 -22.757812 14.800781 -23.390625 12.8125 -23.390625 C 11.78125 -23.390625 11.03125 -23.207031 10.5625 -22.84375 C 10.09375 -22.488281 9.859375 -22.039062 9.859375 -21.5 C 9.859375 -20.925781 10.15625 -20.410156 10.75 -19.953125 C 11.34375 -19.503906 12.957031 -18.679688 15.59375 -17.484375 C 18.113281 -16.335938 19.863281 -15.113281 20.84375 -13.8125 C 21.832031 -12.507812 22.328125 -10.875 22.328125 -8.90625 Z M 22.328125 -8.90625 "/></g></g></g><g fill="#000000" fill-opacity="1"><g transform="translate(251.914358, 217.053118)"><g><path d="M 16.09375 0 L 8.171875 0 L 8.171875 -22.828125 L 1.015625 -22.828125 L 1.015625 -29.296875 L 23.234375 -29.296875 L 23.234375 -22.828125 L 16.09375 -22.828125 Z M 16.09375 0 "/></g></g></g><g fill="#000000" fill-opacity="1"><g transform="translate(276.16242, 217.053118)"><g><path d="M 30.578125 -14.6875 C 30.578125 -9.757812 29.367188 -6.007812 26.953125 -3.4375 C 24.535156 -0.875 20.992188 0.40625 16.328125 0.40625 C 11.734375 0.40625 8.207031 -0.878906 5.75 -3.453125 C 3.300781 -6.035156 2.078125 -9.796875 2.078125 -14.734375 C 2.078125 -19.609375 3.296875 -23.332031 5.734375 -25.90625 C 8.179688 -28.476562 11.726562 -29.765625 16.375 -29.765625 C 21.039062 -29.765625 24.570312 -28.488281 26.96875 -25.9375 C 29.375 -23.382812 30.578125 -19.632812 30.578125 -14.6875 Z M 10.421875 -14.6875 C 10.421875 -9.019531 12.390625 -6.1875 16.328125 -6.1875 C 18.335938 -6.1875 19.828125 -6.875 20.796875 -8.25 C 21.765625 -9.632812 22.25 -11.78125 22.25 -14.6875 C 22.25 -17.613281 21.753906 -19.773438 20.765625 -21.171875 C 19.785156 -22.566406 18.320312 -23.265625 16.375 -23.265625 C 12.40625 -23.265625 10.421875 -20.40625 10.421875 -14.6875 Z M 10.421875 -14.6875 "/></g></g></g><g fill="#000000" fill-opacity="1"><g transform="translate(308.867244, 217.053118)"><g><path d="M 11.078125 -10.65625 L 11.078125 0 L 3.171875 0 L 3.171875 -29.296875 L 12.765625 -29.296875 C 20.734375 -29.296875 24.71875 -26.410156 24.71875 -20.640625 C 24.71875 -17.242188 23.054688 -14.617188 19.734375 -12.765625 L 28.28125 0 L 19.296875 0 L 13.09375 -10.65625 Z M 11.078125 -16.609375 L 12.5625 -16.609375 C 15.332031 -16.609375 16.71875 -17.832031 16.71875 -20.28125 C 16.71875 -22.300781 15.359375 -23.3125 12.640625 -23.3125 L 11.078125 -23.3125 Z M 11.078125 -16.609375 "/></g></g></g><g fill="#000000" fill-opacity="1"><g transform="translate(336.642296, 217.053118)"><g><path d="M 20.5625 0 L 3.171875 0 L 3.171875 -29.296875 L 20.5625 -29.296875 L 20.5625 -22.953125 L 11.078125 -22.953125 L 11.078125 -18.34375 L 19.859375 -18.34375 L 19.859375 -11.984375 L 11.078125 -11.984375 L 11.078125 -6.453125 L 20.5625 -6.453125 Z M 20.5625 0 "/></g></g></g><g fill="#000000" fill-opacity="1"><g transform="translate(119.345506, 253.067467)"><g><path d="M 4 -17.078125 C 6.03125 -19.003906 8.53125 -19.96875 11.5 -19.96875 C 14.476562 -19.96875 16.976562 -19.003906 19 -17.078125 C 21.03125 -15.160156 22.046875 -12.78125 22.046875 -9.9375 C 22.046875 -7.101562 21.03125 -4.710938 19 -2.765625 C 16.976562 -0.828125 14.476562 0.140625 11.5 0.140625 C 8.53125 0.140625 6.03125 -0.828125 4 -2.765625 C 1.976562 -4.710938 0.96875 -7.101562 0.96875 -9.9375 C 0.96875 -12.78125 1.976562 -15.160156 4 -17.078125 Z M 11.53125 -16.953125 C 9.5625 -16.953125 7.875 -16.273438 6.46875 -14.921875 C 5.070312 -13.566406 4.375 -11.90625 4.375 -9.9375 C 4.375 -7.96875 5.078125 -6.296875 6.484375 -4.921875 C 7.898438 -3.554688 9.582031 -2.875 11.53125 -2.875 C 13.476562 -2.875 15.144531 -3.554688 16.53125 -4.921875 C 17.914062 -6.296875 18.609375 -7.96875 18.609375 -9.9375 C 18.609375 -11.90625 17.914062 -13.566406 16.53125 -14.921875 C 15.144531 -16.273438 13.476562 -16.953125 11.53125 -16.953125 Z M 11.53125 -16.953125 "/></g></g></g><g fill="#000000" fill-opacity="1"><g transform="translate(142.347187, 253.067467)"><g><path d="M 19.859375 0 L 16.5625 0 L 5.96875 -14.265625 L 5.96875 0 L 2.609375 0 L 2.609375 -19.890625 L 5.90625 -19.890625 L 16.5625 -5.59375 L 16.5625 -19.890625 L 19.859375 -19.890625 Z M 19.859375 0 "/></g></g></g><g fill="#000000" fill-opacity="1"><g transform="translate(164.837719, 253.067467)"><g><path d="M 5.96875 -3.046875 L 14.578125 -3.046875 L 14.578125 0 L 2.609375 0 L 2.609375 -19.890625 L 5.96875 -19.890625 Z M 5.96875 -3.046875 "/></g></g></g><g fill="#000000" fill-opacity="1"><g transform="translate(180.001773, 253.067467)"><g><path d="M 5.96875 0 L 2.609375 0 L 2.609375 -19.890625 L 5.96875 -19.890625 Z M 5.96875 0 "/></g></g></g><g fill="#000000" fill-opacity="1"><g transform="translate(188.577704, 253.067467)"><g><path d="M 19.859375 0 L 16.5625 0 L 5.96875 -14.265625 L 5.96875 0 L 2.609375 0 L 2.609375 -19.890625 L 5.90625 -19.890625 L 16.5625 -5.59375 L 16.5625 -19.890625 L 19.859375 -19.890625 Z M 19.859375 0 "/></g></g></g><g fill="#000000" fill-opacity="1"><g transform="translate(211.068235, 253.067467)"><g><path d="M 16.8125 -16.875 L 5.96875 -16.875 L 5.96875 -11.5 L 15.6875 -11.5 L 15.6875 -8.5 L 5.96875 -8.5 L 5.96875 -3.015625 L 17.15625 -3.015625 L 17.15625 0 L 2.609375 0 L 2.609375 -19.890625 L 16.8125 -19.890625 Z M 16.8125 -16.875 "/></g></g></g><g fill="#000000" fill-opacity="1"><g transform="translate(229.696755, 253.067467)"><g/></g></g><g fill="#000000" fill-opacity="1"><g transform="translate(237.023207, 253.067467)"><g><path d="M 9.140625 -20.03125 C 11.722656 -20.03125 14.046875 -19.347656 16.109375 -17.984375 L 14.71875 -15.03125 C 12.6875 -16.257812 10.742188 -16.875 8.890625 -16.875 C 7.890625 -16.875 7.097656 -16.691406 6.515625 -16.328125 C 5.941406 -15.972656 5.65625 -15.460938 5.65625 -14.796875 C 5.65625 -14.140625 5.921875 -13.578125 6.453125 -13.109375 C 6.984375 -12.640625 7.644531 -12.296875 8.4375 -12.078125 C 9.226562 -11.867188 10.085938 -11.597656 11.015625 -11.265625 C 11.941406 -10.929688 12.800781 -10.578125 13.59375 -10.203125 C 14.394531 -9.835938 15.054688 -9.257812 15.578125 -8.46875 C 16.097656 -7.6875 16.359375 -6.738281 16.359375 -5.625 C 16.359375 -3.882812 15.660156 -2.492188 14.265625 -1.453125 C 12.878906 -0.410156 11.078125 0.109375 8.859375 0.109375 C 7.347656 0.109375 5.878906 -0.171875 4.453125 -0.734375 C 3.035156 -1.304688 1.796875 -2.078125 0.734375 -3.046875 L 2.1875 -5.9375 C 3.1875 -5.007812 4.285156 -4.296875 5.484375 -3.796875 C 6.691406 -3.296875 7.835938 -3.046875 8.921875 -3.046875 C 10.097656 -3.046875 11.007812 -3.253906 11.65625 -3.671875 C 12.3125 -4.097656 12.640625 -4.691406 12.640625 -5.453125 C 12.640625 -6.140625 12.375 -6.710938 11.84375 -7.171875 C 11.3125 -7.640625 10.644531 -7.976562 9.84375 -8.1875 C 9.050781 -8.40625 8.191406 -8.671875 7.265625 -8.984375 C 6.335938 -9.296875 5.476562 -9.628906 4.6875 -9.984375 C 3.894531 -10.335938 3.234375 -10.898438 2.703125 -11.671875 C 2.171875 -12.453125 1.90625 -13.390625 1.90625 -14.484375 C 1.90625 -16.171875 2.566406 -17.515625 3.890625 -18.515625 C 5.210938 -19.523438 6.960938 -20.03125 9.140625 -20.03125 Z M 9.140625 -20.03125 "/></g></g></g><g fill="#000000" fill-opacity="1"><g transform="translate(254.686218, 253.067467)"><g><path d="M 16.1875 -16.875 L 9.890625 -16.875 L 9.890625 0 L 6.53125 0 L 6.53125 -16.875 L 0.25 -16.875 L 0.25 -19.890625 L 16.1875 -19.890625 Z M 16.1875 -16.875 "/></g></g></g><g fill="#000000" fill-opacity="1"><g transform="translate(271.128157, 253.067467)"><g><path d="M 4 -17.078125 C 6.03125 -19.003906 8.53125 -19.96875 11.5 -19.96875 C 14.476562 -19.96875 16.976562 -19.003906 19 -17.078125 C 21.03125 -15.160156 22.046875 -12.78125 22.046875 -9.9375 C 22.046875 -7.101562 21.03125 -4.710938 19 -2.765625 C 16.976562 -0.828125 14.476562 0.140625 11.5 0.140625 C 8.53125 0.140625 6.03125 -0.828125 4 -2.765625 C 1.976562 -4.710938 0.96875 -7.101562 0.96875 -9.9375 C 0.96875 -12.78125 1.976562 -15.160156 4 -17.078125 Z M 11.53125 -16.953125 C 9.5625 -16.953125 7.875 -16.273438 6.46875 -14.921875 C 5.070312 -13.566406 4.375 -11.90625 4.375 -9.9375 C 4.375 -7.96875 5.078125 -6.296875 6.484375 -4.921875 C 7.898438 -3.554688 9.582031 -2.875 11.53125 -2.875 C 13.476562 -2.875 15.144531 -3.554688 16.53125 -4.921875 C 17.914062 -6.296875 18.609375 -7.96875 18.609375 -9.9375 C 18.609375 -11.90625 17.914062 -13.566406 16.53125 -14.921875 C 15.144531 -16.273438 13.476562 -16.953125 11.53125 -16.953125 Z M 11.53125 -16.953125 "/></g></g></g><g fill="#000000" fill-opacity="1"><g transform="translate(294.129838, 253.067467)"><g><path d="M 15.21875 0 L 11.59375 -6.015625 C 11.40625 -6.003906 11.101562 -6 10.6875 -6 L 5.96875 -6 L 5.96875 0 L 2.609375 0 L 2.609375 -19.890625 L 10.6875 -19.890625 C 13.21875 -19.890625 15.179688 -19.296875 16.578125 -18.109375 C 17.984375 -16.921875 18.6875 -15.25 18.6875 -13.09375 C 18.6875 -11.5 18.332031 -10.148438 17.625 -9.046875 C 16.914062 -7.953125 15.898438 -7.148438 14.578125 -6.640625 L 19.03125 0 Z M 5.96875 -9 L 10.6875 -9 C 13.90625 -9 15.515625 -10.335938 15.515625 -13.015625 C 15.515625 -15.585938 13.90625 -16.875 10.6875 -16.875 L 5.96875 -16.875 Z M 5.96875 -9 "/></g></g></g><g fill="#000000" fill-opacity="1"><g transform="translate(314.660969, 253.067467)"><g><path d="M 16.8125 -16.875 L 5.96875 -16.875 L 5.96875 -11.5 L 15.6875 -11.5 L 15.6875 -8.5 L 5.96875 -8.5 L 5.96875 -3.015625 L 17.15625 -3.015625 L 17.15625 0 L 2.609375 0 L 2.609375 -19.890625 L 16.8125 -19.890625 Z M 16.8125 -16.875 "/></g></g></g></svg>