<svg xmlns="http://www.w3.org/2000/svg" xmlns:xlink="http://www.w3.org/1999/xlink" width="200" zoomAndPan="magnify" viewBox="0 0 150 37.5" height="50" preserveAspectRatio="xMidYMid meet" version="1.0"><defs><g/><clipPath id="770a7fd32e"><path d="M 43 8 L 49.277344 8 L 49.277344 31 L 43 31 Z M 43 8 " clip-rule="nonzero"/></clipPath><clipPath id="5775c15bca"><path d="M 21.152344 8 L 39 8 L 39 36.667969 L 21.152344 36.667969 Z M 21.152344 8 " clip-rule="nonzero"/></clipPath><clipPath id="9b24d2990d"><path d="M 21.152344 8 L 28 8 L 28 31 L 21.152344 31 Z M 21.152344 8 " clip-rule="nonzero"/></clipPath><clipPath id="adf6a80627"><path d="M 32 8 L 49 8 L 49 36.667969 L 32 36.667969 Z M 32 8 " clip-rule="nonzero"/></clipPath><clipPath id="6bc60e902f"><path d="M 30 0.398438 L 41 0.398438 L 41 11 L 30 11 Z M 30 0.398438 " clip-rule="nonzero"/></clipPath></defs><g clip-path="url(#770a7fd32e)"><path fill="#10213f" d="M 43.136719 30.4375 L 43.136719 8.640625 L 49.277344 8.640625 L 49.277344 30.4375 L 43.136719 30.4375 " fill-opacity="1" fill-rule="nonzero"/></g><g clip-path="url(#5775c15bca)"><path fill="#10213f" d="M 32.21875 36.667969 L 21.464844 8.644531 L 27.507812 8.644531 L 34.554688 27.003906 L 38.234375 36.597656 L 38.207031 36.667969 L 32.21875 36.667969 " fill-opacity="1" fill-rule="nonzero"/></g><g clip-path="url(#9b24d2990d)"><path fill="#ffffff" d="M 21.152344 30.4375 L 21.152344 8.640625 L 27.292969 8.640625 L 27.292969 30.4375 L 21.152344 30.4375 " fill-opacity="1" fill-rule="nonzero"/></g><g clip-path="url(#adf6a80627)"><path fill="#ffffff" d="M 32.21875 36.667969 L 32.191406 36.597656 L 42.917969 8.644531 L 48.960938 8.644531 L 41.769531 27.382812 L 38.207031 36.667969 L 32.21875 36.667969 " fill-opacity="1" fill-rule="nonzero"/></g><g clip-path="url(#6bc60e902f)"><path fill="#ffffff" d="M 40.109375 5.207031 C 40.109375 7.859375 37.917969 10.011719 35.214844 10.011719 C 32.511719 10.011719 30.320312 7.859375 30.320312 5.207031 C 30.320312 2.550781 32.511719 0.402344 35.214844 0.402344 C 37.917969 0.402344 40.109375 2.550781 40.109375 5.207031 " fill-opacity="1" fill-rule="nonzero"/></g><g fill="#10213f" fill-opacity="1"><g transform="translate(67.683095, 24.700715)"><g><path d="M 1.289062 -18.03125 L 1.289062 0 L 3.863281 0 L 3.863281 -18.03125 L 21.894531 -18.03125 L 21.894531 0 L 24.46875 0 L 24.46875 -18.03125 C 24.46875 -19.753906 23.617188 -20.605469 21.894531 -20.605469 L 3.863281 -20.605469 C 2.164062 -20.605469 1.289062 -19.753906 1.289062 -18.03125 Z M 11.589844 0 L 14.167969 0 L 14.167969 -15.453125 L 11.589844 -15.453125 Z M 11.589844 0 "/></g></g></g><g fill="#10213f" fill-opacity="1"><g transform="translate(93.437416, 24.700715)"><g><path d="M 12.878906 -11.589844 L 1.289062 -11.589844 L 1.289062 0 L 3.863281 0 L 3.863281 -9.015625 L 12.878906 -9.015625 C 14.605469 -9.015625 15.453125 -9.890625 15.453125 -11.589844 L 15.453125 -18.03125 C 15.453125 -19.753906 14.605469 -20.605469 12.878906 -20.605469 L 1.289062 -20.605469 L 1.289062 -18.03125 L 12.878906 -18.03125 Z M 12.878906 -11.589844 "/></g></g></g><g fill="#ffffff" fill-opacity="1"><g transform="translate(52.518909, 33.464115)"><g><path d="M 3.324219 0.167969 C 5.703125 0.167969 6.605469 -1.757812 6.605469 -3.96875 C 6.605469 -6.164062 5.726562 -8.070312 3.324219 -8.070312 C 0.933594 -8.070312 0.0546875 -6.164062 0.0546875 -3.96875 C 0.0546875 -1.757812 0.945312 0.167969 3.324219 0.167969 Z M 3.324219 -1.238281 C 1.972656 -1.238281 1.679688 -2.863281 1.679688 -3.96875 C 1.679688 -5.082031 1.996094 -6.671875 3.324219 -6.671875 C 4.65625 -6.671875 4.96875 -5.082031 4.96875 -3.96875 C 4.96875 -2.863281 4.675781 -1.238281 3.324219 -1.238281 Z M 3.324219 -1.238281 "/></g></g></g><g fill="#ffffff" fill-opacity="1"><g transform="translate(59.742934, 33.464115)"><g><path d="M 0.292969 0 L 1.914062 0 L 1.914062 -3.574219 L 1.703125 -5.667969 L 1.722656 -5.667969 L 4.914062 0 L 6.71875 0 L 6.71875 -7.890625 L 5.082031 -7.890625 L 5.082031 -4.226562 L 5.34375 -2.199219 L 5.332031 -2.199219 L 2.140625 -7.890625 L 0.292969 -7.890625 Z M 0.292969 0 "/></g></g></g><g fill="#ffffff" fill-opacity="1"><g transform="translate(67.282519, 33.464115)"><g><path d="M 0.292969 0 L 5.476562 0 L 5.476562 -1.386719 L 1.925781 -1.386719 L 1.925781 -7.890625 L 0.292969 -7.890625 Z M 0.292969 0 "/></g></g></g><g fill="#ffffff" fill-opacity="1"><g transform="translate(73.42463, 33.464115)"><g><path d="M 0.304688 0 L 1.9375 0 L 1.9375 -7.890625 L 0.304688 -7.890625 Z M 0.304688 0 "/></g></g></g><g fill="#ffffff" fill-opacity="1"><g transform="translate(76.163226, 33.464115)"><g><path d="M 0.292969 0 L 1.914062 0 L 1.914062 -3.574219 L 1.703125 -5.667969 L 1.722656 -5.667969 L 4.914062 0 L 6.71875 0 L 6.71875 -7.890625 L 5.082031 -7.890625 L 5.082031 -4.226562 L 5.34375 -2.199219 L 5.332031 -2.199219 L 2.140625 -7.890625 L 0.292969 -7.890625 Z M 0.292969 0 "/></g></g></g><g fill="#ffffff" fill-opacity="1"><g transform="translate(83.702811, 33.464115)"><g><path d="M 0.269531 0 L 5.464844 0 L 5.464844 -1.363281 L 1.90625 -1.363281 L 1.90625 -3.300781 L 5.320312 -3.300781 L 5.320312 -4.597656 L 1.90625 -4.597656 L 1.90625 -6.515625 L 5.464844 -6.515625 L 5.464844 -7.890625 L 0.269531 -7.890625 Z M 0.269531 0 "/></g></g></g><g fill="#ffffff" fill-opacity="1"><g transform="translate(89.788576, 33.464115)"><g/></g></g><g fill="#ffffff" fill-opacity="1"><g transform="translate(92.245421, 33.464115)"><g><path d="M 3.121094 0.167969 C 4.632812 0.167969 6.085938 -0.449219 6.085938 -2.242188 C 6.085938 -4.171875 4.609375 -4.574219 3.042969 -4.632812 C 2.0625 -4.675781 1.722656 -5.140625 1.722656 -5.667969 C 1.722656 -6.34375 2.320312 -6.683594 2.996094 -6.683594 C 3.683594 -6.683594 4.328125 -6.480469 4.328125 -5.636719 L 5.917969 -5.636719 C 5.917969 -7.6875 4.261719 -8.070312 2.996094 -8.070312 C 1.542969 -8.070312 0.101562 -7.40625 0.101562 -5.667969 C 0.101562 -3.765625 1.453125 -3.390625 3.03125 -3.269531 C 3.753906 -3.210938 4.464844 -3.144531 4.464844 -2.199219 C 4.453125 -1.53125 3.820312 -1.238281 3.121094 -1.238281 C 2.300781 -1.238281 1.644531 -1.53125 1.644531 -2.503906 L 0.0234375 -2.503906 C 0.0234375 -0.246094 1.824219 0.167969 3.121094 0.167969 Z M 3.121094 0.167969 "/></g></g></g><g fill="#ffffff" fill-opacity="1"><g transform="translate(98.93976, 33.464115)"><g><path d="M 2.117188 0.0117188 L 3.742188 0.0117188 L 3.742188 -6.515625 L 6.019531 -6.515625 L 6.019531 -7.890625 L -0.148438 -7.890625 L -0.148438 -6.515625 L 2.117188 -6.515625 Z M 2.117188 0.0117188 "/></g></g></g><g fill="#ffffff" fill-opacity="1"><g transform="translate(105.307271, 33.464115)"><g><path d="M 3.324219 0.167969 C 5.703125 0.167969 6.605469 -1.757812 6.605469 -3.96875 C 6.605469 -6.164062 5.726562 -8.070312 3.324219 -8.070312 C 0.933594 -8.070312 0.0546875 -6.164062 0.0546875 -3.96875 C 0.0546875 -1.757812 0.945312 0.167969 3.324219 0.167969 Z M 3.324219 -1.238281 C 1.972656 -1.238281 1.679688 -2.863281 1.679688 -3.96875 C 1.679688 -5.082031 1.996094 -6.671875 3.324219 -6.671875 C 4.65625 -6.671875 4.96875 -5.082031 4.96875 -3.96875 C 4.96875 -2.863281 4.675781 -1.238281 3.324219 -1.238281 Z M 3.324219 -1.238281 "/></g></g></g><g fill="#ffffff" fill-opacity="1"><g transform="translate(112.531296, 33.464115)"><g><path d="M 0.28125 0 L 1.914062 0 L 1.914062 -2.875 L 2.773438 -2.875 L 4.53125 0 L 6.3125 0 L 6.3125 -0.0664062 L 4.472656 -2.917969 C 5.589844 -3.234375 6.132812 -4.273438 6.121094 -5.363281 C 6.121094 -6.636719 5.386719 -7.890625 3.5625 -7.890625 L 0.28125 -7.890625 Z M 1.914062 -4.160156 L 1.914062 -6.558594 L 3.5625 -6.558594 C 4.191406 -6.558594 4.496094 -5.949219 4.496094 -5.351562 C 4.496094 -4.757812 4.191406 -4.160156 3.605469 -4.160156 Z M 1.914062 -4.160156 "/></g></g></g><g fill="#ffffff" fill-opacity="1"><g transform="translate(119.259445, 33.464115)"><g><path d="M 0.269531 0 L 5.464844 0 L 5.464844 -1.363281 L 1.90625 -1.363281 L 1.90625 -3.300781 L 5.320312 -3.300781 L 5.320312 -4.597656 L 1.90625 -4.597656 L 1.90625 -6.515625 L 5.464844 -6.515625 L 5.464844 -7.890625 L 0.269531 -7.890625 Z M 0.269531 0 "/></g></g></g></svg>